<svg width="115" height="22" viewBox="0 0 115 22" fill="none" xmlns="http://www.w3.org/2000/svg">
<path d="M0 1.29056H15.2975V5.23356H9.77767V20.7353H5.5199V5.23356H0V1.29056Z" fill="#50434C"/>
<path d="M20.2136 7.20218C24.3937 7.20218 27.4412 9.98698 27.4412 14.1398C27.4412 18.2926 24.3908 21.0515 20.2136 21.0515C16.0364 21.0515 12.9602 18.2926 12.9602 14.1398C12.9602 9.98698 16.0105 7.20218 20.2136 7.20218ZM20.2136 17.4246C22.0795 17.4246 23.3674 16.1112 23.3674 14.1139C23.3674 12.1166 22.0795 10.829 20.2136 10.829C18.3478 10.829 17.0339 12.1424 17.0339 14.1139C17.0339 16.0854 18.3219 17.4246 20.2136 17.4246Z" fill="#50434C"/>
<path d="M28.7292 20.7353V0.922699H32.7771V12.3263L37.0349 7.59586H42.1091L37.1671 12.7976L41.9509 20.7324H37.2735L34.3295 15.8181L32.78 17.4476V20.7324H28.7321L28.7292 20.7353Z" fill="#50434C"/>
<path d="M41.3444 14.1398C41.3444 10.0416 44.1043 7.17624 48.0747 7.17624C52.0444 7.17624 54.7761 9.88348 54.7761 14.1656V15.1916L45.2341 15.2433C45.4698 16.9762 46.4446 17.7925 48.2298 17.7925C49.7533 17.7925 50.8312 17.2406 51.1216 16.2951H54.8275C54.3533 19.2121 51.752 21.0773 48.1518 21.0773C44.1819 21.0773 41.3444 18.1862 41.3444 14.1398ZM45.2859 12.7459H50.7541C50.7541 11.352 49.7276 10.4611 48.1004 10.4611C46.4732 10.4611 45.6021 11.171 45.2887 12.7459H45.2859Z" fill="#50434C"/>
<path d="M56.1159 20.7353V7.59586H59.9275L60.1893 8.96094C61.0034 7.83159 62.5041 7.1734 64.2114 7.1734C67.3393 7.1734 69.1532 9.17079 69.1532 12.6137V20.7324H65.1055V13.585C65.1055 11.9297 64.1857 10.852 62.7916 10.852C61.1872 10.852 60.1636 11.9038 60.1636 13.5334V20.7324H56.1159V20.7353Z" fill="#50434C"/>
<path d="M70.6776 3.23616C70.6776 1.94874 71.7031 0.951477 72.9914 0.951477C74.2797 0.951477 75.2766 1.94874 75.2766 3.23616C75.2766 4.52369 74.2511 5.5497 72.9914 5.5497C71.7327 5.5497 70.6776 4.52369 70.6776 3.23616ZM70.9937 7.59875H75.0414V20.7382H70.9937V7.59589V7.59875Z" fill="#50434C"/>
<path d="M76.4612 20.7353V17.3728L82.3495 10.9612H76.4612V7.59872H87.4751V10.9612L81.4297 17.3728H87.4751V20.7353H76.4612Z" fill="#50434C"/>
<path d="M88.1825 14.1398C88.1825 10.0416 90.9429 7.17624 94.9126 7.17624C98.8832 7.17624 101.617 9.88348 101.617 14.1656V15.1916L92.0751 15.2433C92.3112 16.9762 93.2854 17.7925 95.0706 17.7925C96.5951 17.7925 97.673 17.2406 97.9634 16.2951H101.669C101.194 19.2121 98.5928 21.0773 94.9936 21.0773C91.0229 21.0773 88.1854 18.1862 88.1854 14.1398H88.1825ZM92.1245 12.7459H97.5919C97.5919 11.352 96.5654 10.4611 94.9382 10.4611C93.311 10.4611 92.4406 11.171 92.1275 12.7459H92.1245Z" fill="#50434C"/>
<path d="M103.325 19.603C103.325 18.8931 103.923 18.3097 104.636 18.3097C105.349 18.3097 105.947 18.8903 105.947 19.603C105.947 20.3157 105.349 20.879 104.636 20.879C103.923 20.879 103.325 20.2985 103.325 19.603Z" fill="#50434C"/>
<path d="M107.143 9.90653C107.143 9.24262 107.677 8.72818 108.356 8.72818C109.035 8.72818 109.538 9.24548 109.538 9.90653C109.538 10.5675 109.003 11.1021 108.356 11.1021C107.677 11.1021 107.143 10.5675 107.143 9.90653ZM107.37 12.7028H109.342V20.6865H107.37V12.7028Z" fill="#50434C"/>
<path d="M111.475 20.6865V14.3496H109.941V12.7H111.475V10.2112H113.448V12.7H115V14.3496H113.448V20.6865H111.475Z" fill="#50434C"/>
</svg>
