<svg width="22" height="22" viewBox="0 0 22 22" fill="none" xmlns="http://www.w3.org/2000/svg">
<g clip-path="url(#clip0_568_2595)">
<path d="M9.16669 12.8333C9.46541 13.1382 9.82196 13.3804 10.2155 13.5458C10.609 13.7111 11.0315 13.7963 11.4584 13.7963C11.8852 13.7963 12.3077 13.7111 12.7012 13.5458C13.0947 13.3804 13.4513 13.1382 13.75 12.8333L17.4167 9.16667C18.0245 8.55888 18.3659 7.73454 18.3659 6.875C18.3659 6.01546 18.0245 5.19112 17.4167 4.58333C16.8089 3.97555 15.9846 3.63409 15.125 3.63409C14.2655 3.63409 13.4411 3.97555 12.8334 4.58333L12.375 5.04167" stroke="#4DAC63" stroke-width="1.5" stroke-linecap="round" stroke-linejoin="round"/>
<path d="M12.8333 9.16667C12.5346 8.86179 12.1781 8.61958 11.7846 8.45423C11.391 8.28888 10.9685 8.2037 10.5417 8.2037C10.1148 8.2037 9.69229 8.28888 9.29878 8.45423C8.90528 8.61958 8.54872 8.86179 8.25 9.16667L4.58333 12.8333C3.97555 13.4411 3.63409 14.2655 3.63409 15.125C3.63409 15.9845 3.97555 16.8089 4.58333 17.4167C5.19112 18.0245 6.01546 18.3659 6.875 18.3659C7.73454 18.3659 8.55888 18.0245 9.16667 17.4167L9.625 16.9583" stroke="#4DAC63" stroke-width="1.5" stroke-linecap="round" stroke-linejoin="round"/>
</g>
<defs>
<clipPath id="clip0_568_2595">
<rect width="22" height="22" fill="white"/>
</clipPath>
</defs>
</svg>
