<svg width="22" height="22" viewBox="0 0 22 22" fill="none" xmlns="http://www.w3.org/2000/svg">
<path d="M8.25 4.58334H6.41667C5.91041 4.58334 5.5 4.99375 5.5 5.50001V16.5C5.5 17.0063 5.91041 17.4167 6.41667 17.4167H8.25C8.75626 17.4167 9.16667 17.0063 9.16667 16.5V5.50001C9.16667 4.99375 8.75626 4.58334 8.25 4.58334Z" stroke="#D6761E" stroke-width="1.5" stroke-linecap="round" stroke-linejoin="round"/>
<path d="M15.5833 4.58334H13.75C13.2437 4.58334 12.8333 4.99375 12.8333 5.50001V16.5C12.8333 17.0063 13.2437 17.4167 13.75 17.4167H15.5833C16.0896 17.4167 16.5 17.0063 16.5 16.5V5.50001C16.5 4.99375 16.0896 4.58334 15.5833 4.58334Z" stroke="#D6761E" stroke-width="1.5" stroke-linecap="round" stroke-linejoin="round"/>
</svg>
