<svg width="279" height="337" viewBox="0 0 279 337" fill="none" xmlns="http://www.w3.org/2000/svg">
<g opacity="0.2" clip-path="url(#clip0_568_2621)">
<path d="M-79.1811 205.564L-151.012 150.402L-79.2062 95.2588L137.336 119.448L137.592 150.157L65.4424 205.564L-79.1811 205.564Z" fill="white" stroke="#563E4E"/>
<path d="M-79.1811 285.556L-151.012 230.394L-79.1811 175.231L65.4423 175.231L137.273 230.394L65.4424 285.556L-79.1811 285.556Z" fill="white" stroke="#563E4E"/>
<path d="M136.667 341.051L64.8365 285.889L136.667 230.726L281.29 230.726L353.121 285.889L281.29 341.051L136.667 341.051Z" fill="white" stroke="#563E4E"/>
<path d="M-79.1811 174.564L-151.012 119.402L-79.1811 64.2395L65.4423 64.2395L137.273 119.402L65.4424 174.564L-79.1811 174.564Z" fill="white" stroke="#563E4E"/>
</g>
<defs>
<clipPath id="clip0_568_2621">
<rect width="280" height="337" fill="white"/>
</clipPath>
</defs>
</svg>
