<svg width="29" height="28" viewBox="0 0 29 28" fill="none" xmlns="http://www.w3.org/2000/svg">
<g clip-path="url(#clip0_568_2648)">
<path d="M12.44 5.83333C12.44 5.21449 12.6859 4.621 13.1235 4.18342C13.561 3.74583 14.1545 3.5 14.7734 3.5C15.3922 3.5 15.9857 3.74583 16.4233 4.18342C16.8609 4.621 17.1067 5.21449 17.1067 5.83333C18.4465 6.46687 19.5887 7.45305 20.4108 8.68618C21.2328 9.91932 21.7039 11.3529 21.7734 12.8333V16.3333C21.8612 17.0587 22.118 17.7532 22.5233 18.3611C22.9286 18.9691 23.4709 19.4733 24.1067 19.8333H5.44003C6.07579 19.4733 6.61814 18.9691 7.02342 18.3611C7.42869 17.7532 7.68557 17.0587 7.77337 16.3333L7.77337 12.8333C7.84285 11.3529 8.31388 9.91932 9.13597 8.68618C9.95806 7.45305 11.1002 6.46687 12.44 5.83333" stroke="black" stroke-width="1.5" stroke-linecap="round" stroke-linejoin="round"/>
<path d="M11.2734 19.8333V21C11.2734 21.9283 11.6421 22.8185 12.2985 23.4749C12.9549 24.1313 13.8451 24.5 14.7734 24.5C15.7016 24.5 16.5919 24.1313 17.2483 23.4749C17.9046 22.8185 18.2734 21.9283 18.2734 21V19.8333" stroke="black" stroke-width="1.5" stroke-linecap="round" stroke-linejoin="round"/>
</g>
<defs>
<clipPath id="clip0_568_2648">
<rect width="28" height="28" fill="white" transform="translate(0.773376)"/>
</clipPath>
</defs>
</svg>
