<svg width="26" height="26" viewBox="0 0 26 26" fill="none" xmlns="http://www.w3.org/2000/svg">
<path d="M18.4167 8.66668V5.41668C18.4167 5.12936 18.3025 4.85381 18.0994 4.65064C17.8962 4.44748 17.6207 4.33334 17.3333 4.33334H6.50001C5.92537 4.33334 5.37427 4.56162 4.96795 4.96795C4.56162 5.37427 4.33334 5.92537 4.33334 6.50001C4.33334 7.07465 4.56162 7.62575 4.96795 8.03208C5.37427 8.4384 5.92537 8.66668 6.50001 8.66668H19.5C19.7873 8.66668 20.0629 8.78081 20.266 8.98398C20.4692 9.18714 20.5833 9.46269 20.5833 9.75001V13M20.5833 17.3333V20.5833C20.5833 20.8707 20.4692 21.1462 20.266 21.3494C20.0629 21.5525 19.7873 21.6667 19.5 21.6667H6.50001C5.92537 21.6667 5.37427 21.4384 4.96795 21.0321C4.56162 20.6257 4.33334 20.0746 4.33334 19.5V6.50001" stroke="#40BC5D" stroke-width="2" stroke-linecap="round" stroke-linejoin="round"/>
<path d="M21.6667 13V17.3333H17.3334C16.7587 17.3333 16.2076 17.1051 15.8013 16.6987C15.395 16.2924 15.1667 15.7413 15.1667 15.1667C15.1667 14.592 15.395 14.0409 15.8013 13.6346C16.2076 13.2283 16.7587 13 17.3334 13H21.6667Z" stroke="#40BC5D" stroke-width="2" stroke-linecap="round" stroke-linejoin="round"/>
</svg>
