<svg width="22" height="22" viewBox="0 0 22 22" fill="none" xmlns="http://www.w3.org/2000/svg">
<path d="M15.5833 7.33333V4.58333C15.5833 4.34022 15.4867 4.10706 15.3148 3.93515C15.1429 3.76324 14.9098 3.66667 14.6667 3.66667H5.49999C5.01376 3.66667 4.54744 3.85982 4.20363 4.20364C3.85981 4.54745 3.66666 5.01377 3.66666 5.5C3.66666 5.98623 3.85981 6.45255 4.20363 6.79636C4.54744 7.14018 5.01376 7.33333 5.49999 7.33333H16.5C16.7431 7.33333 16.9763 7.42991 17.1482 7.60182C17.3201 7.77373 17.4167 8.00688 17.4167 8.25V11M17.4167 14.6667V17.4167C17.4167 17.6598 17.3201 17.8929 17.1482 18.0648C16.9763 18.2368 16.7431 18.3333 16.5 18.3333H5.49999C5.01376 18.3333 4.54744 18.1402 4.20363 17.7964C3.85981 17.4525 3.66666 16.9862 3.66666 16.5V5.5" stroke="#4DAC63" stroke-width="1.5" stroke-linecap="round" stroke-linejoin="round"/>
<path d="M18.3333 11V14.6667H14.6667C14.1804 14.6667 13.7141 14.4735 13.3703 14.1297C13.0265 13.7859 12.8333 13.3196 12.8333 12.8333C12.8333 12.3471 13.0265 11.8808 13.3703 11.537C13.7141 11.1932 14.1804 11 14.6667 11H18.3333Z" stroke="#4DAC63" stroke-width="1.5" stroke-linecap="round" stroke-linejoin="round"/>
</svg>
